<svg xmlns="http://www.w3.org/2000/svg" width="640" height="500" viewBox="0 0 640 500" role="img">
<title>Luka Modrić V4 spatial heatmap</title>
<rect width="640" height="500" fill="#f7fafc"/>
<text x="20" y="28" font-family="Arial" font-size="18" font-weight="700">Luka Modrić</text>
<text x="20" y="49" font-family="Arial" font-size="12">Ball-Winner · 673 minutes · 21.7% final third</text>
<rect x="20" y="60" width="50" height="50" fill="rgb(245,248,255)" stroke="#ffffff" stroke-width="0.5"/>
<rect x="20" y="110" width="50" height="50" fill="rgb(242,246,254)" stroke="#ffffff" stroke-width="0.5"/>
<rect x="20" y="160" width="50" height="50" fill="rgb(242,246,254)" stroke="#ffffff" stroke-width="0.5"/>
<rect x="20" y="210" width="50" height="50" fill="rgb(245,248,255)" stroke="#ffffff" stroke-width="0.5"/>
<rect x="20" y="260" width="50" height="50" fill="rgb(245,248,255)" stroke="#ffffff" stroke-width="0.5"/>
<rect x="20" y="310" width="50" height="50" fill="rgb(245,248,255)" stroke="#ffffff" stroke-width="0.5"/>
<rect x="20" y="360" width="50" height="50" fill="rgb(219,233,249)" stroke="#ffffff" stroke-width="0.5"/>
<rect x="20" y="410" width="50" height="50" fill="rgb(242,246,254)" stroke="#ffffff" stroke-width="0.5"/>
<rect x="70" y="60" width="50" height="50" fill="rgb(242,246,254)" stroke="#ffffff" stroke-width="0.5"/>
<rect x="70" y="110" width="50" height="50" fill="rgb(238,244,253)" stroke="#ffffff" stroke-width="0.5"/>
<rect x="70" y="160" width="50" height="50" fill="rgb(238,244,253)" stroke="#ffffff" stroke-width="0.5"/>
<rect x="70" y="210" width="50" height="50" fill="rgb(242,246,254)" stroke="#ffffff" stroke-width="0.5"/>
<rect x="70" y="260" width="50" height="50" fill="rgb(245,248,255)" stroke="#ffffff" stroke-width="0.5"/>
<rect x="70" y="310" width="50" height="50" fill="rgb(226,237,251)" stroke="#ffffff" stroke-width="0.5"/>
<rect x="70" y="360" width="50" height="50" fill="rgb(233,241,252)" stroke="#ffffff" stroke-width="0.5"/>
<rect x="70" y="410" width="50" height="50" fill="rgb(235,242,253)" stroke="#ffffff" stroke-width="0.5"/>
<rect x="120" y="60" width="50" height="50" fill="rgb(238,244,253)" stroke="#ffffff" stroke-width="0.5"/>
<rect x="120" y="110" width="50" height="50" fill="rgb(219,233,249)" stroke="#ffffff" stroke-width="0.5"/>
<rect x="120" y="160" width="50" height="50" fill="rgb(219,233,249)" stroke="#ffffff" stroke-width="0.5"/>
<rect x="120" y="210" width="50" height="50" fill="rgb(226,237,251)" stroke="#ffffff" stroke-width="0.5"/>
<rect x="120" y="260" width="50" height="50" fill="rgb(214,231,248)" stroke="#ffffff" stroke-width="0.5"/>
<rect x="120" y="310" width="50" height="50" fill="rgb(177,210,240)" stroke="#ffffff" stroke-width="0.5"/>
<rect x="120" y="360" width="50" height="50" fill="rgb(168,205,238)" stroke="#ffffff" stroke-width="0.5"/>
<rect x="120" y="410" width="50" height="50" fill="rgb(233,241,252)" stroke="#ffffff" stroke-width="0.5"/>
<rect x="170" y="60" width="50" height="50" fill="rgb(210,228,247)" stroke="#ffffff" stroke-width="0.5"/>
<rect x="170" y="110" width="50" height="50" fill="rgb(214,231,248)" stroke="#ffffff" stroke-width="0.5"/>
<rect x="170" y="160" width="50" height="50" fill="rgb(165,204,238)" stroke="#ffffff" stroke-width="0.5"/>
<rect x="170" y="210" width="50" height="50" fill="rgb(158,200,236)" stroke="#ffffff" stroke-width="0.5"/>
<rect x="170" y="260" width="50" height="50" fill="rgb(170,207,239)" stroke="#ffffff" stroke-width="0.5"/>
<rect x="170" y="310" width="50" height="50" fill="rgb(111,175,226)" stroke="#ffffff" stroke-width="0.5"/>
<rect x="170" y="360" width="50" height="50" fill="rgb(81,158,220)" stroke="#ffffff" stroke-width="0.5"/>
<rect x="170" y="410" width="50" height="50" fill="rgb(151,196,235)" stroke="#ffffff" stroke-width="0.5"/>
<rect x="220" y="60" width="50" height="50" fill="rgb(224,236,250)" stroke="#ffffff" stroke-width="0.5"/>
<rect x="220" y="110" width="50" height="50" fill="rgb(168,205,238)" stroke="#ffffff" stroke-width="0.5"/>
<rect x="220" y="160" width="50" height="50" fill="rgb(140,190,232)" stroke="#ffffff" stroke-width="0.5"/>
<rect x="220" y="210" width="50" height="50" fill="rgb(177,210,240)" stroke="#ffffff" stroke-width="0.5"/>
<rect x="220" y="260" width="50" height="50" fill="rgb(79,157,219)" stroke="#ffffff" stroke-width="0.5"/>
<rect x="220" y="310" width="50" height="50" fill="rgb(35,133,210)" stroke="#ffffff" stroke-width="0.5"/>
<rect x="220" y="360" width="50" height="50" fill="rgb(60,147,215)" stroke="#ffffff" stroke-width="0.5"/>
<rect x="220" y="410" width="50" height="50" fill="rgb(58,145,215)" stroke="#ffffff" stroke-width="0.5"/>
<rect x="270" y="60" width="50" height="50" fill="rgb(193,219,244)" stroke="#ffffff" stroke-width="0.5"/>
<rect x="270" y="110" width="50" height="50" fill="rgb(156,199,236)" stroke="#ffffff" stroke-width="0.5"/>
<rect x="270" y="160" width="50" height="50" fill="rgb(111,175,226)" stroke="#ffffff" stroke-width="0.5"/>
<rect x="270" y="210" width="50" height="50" fill="rgb(114,176,227)" stroke="#ffffff" stroke-width="0.5"/>
<rect x="270" y="260" width="50" height="50" fill="rgb(116,177,227)" stroke="#ffffff" stroke-width="0.5"/>
<rect x="270" y="310" width="50" height="50" fill="rgb(51,141,213)" stroke="#ffffff" stroke-width="0.5"/>
<rect x="270" y="360" width="50" height="50" fill="rgb(60,147,215)" stroke="#ffffff" stroke-width="0.5"/>
<rect x="270" y="410" width="50" height="50" fill="rgb(132,186,231)" stroke="#ffffff" stroke-width="0.5"/>
<rect x="320" y="60" width="50" height="50" fill="rgb(210,228,247)" stroke="#ffffff" stroke-width="0.5"/>
<rect x="320" y="110" width="50" height="50" fill="rgb(172,208,239)" stroke="#ffffff" stroke-width="0.5"/>
<rect x="320" y="160" width="50" height="50" fill="rgb(126,182,229)" stroke="#ffffff" stroke-width="0.5"/>
<rect x="320" y="210" width="50" height="50" fill="rgb(98,167,223)" stroke="#ffffff" stroke-width="0.5"/>
<rect x="320" y="260" width="50" height="50" fill="rgb(140,190,232)" stroke="#ffffff" stroke-width="0.5"/>
<rect x="320" y="310" width="50" height="50" fill="rgb(44,138,212)" stroke="#ffffff" stroke-width="0.5"/>
<rect x="320" y="360" width="50" height="50" fill="rgb(84,159,220)" stroke="#ffffff" stroke-width="0.5"/>
<rect x="320" y="410" width="50" height="50" fill="rgb(144,193,233)" stroke="#ffffff" stroke-width="0.5"/>
<rect x="370" y="60" width="50" height="50" fill="rgb(200,223,245)" stroke="#ffffff" stroke-width="0.5"/>
<rect x="370" y="110" width="50" height="50" fill="rgb(186,216,242)" stroke="#ffffff" stroke-width="0.5"/>
<rect x="370" y="160" width="50" height="50" fill="rgb(79,157,219)" stroke="#ffffff" stroke-width="0.5"/>
<rect x="370" y="210" width="50" height="50" fill="rgb(179,212,241)" stroke="#ffffff" stroke-width="0.5"/>
<rect x="370" y="260" width="50" height="50" fill="rgb(184,214,242)" stroke="#ffffff" stroke-width="0.5"/>
<rect x="370" y="310" width="50" height="50" fill="rgb(132,186,231)" stroke="#ffffff" stroke-width="0.5"/>
<rect x="370" y="360" width="50" height="50" fill="rgb(116,177,227)" stroke="#ffffff" stroke-width="0.5"/>
<rect x="370" y="410" width="50" height="50" fill="rgb(84,159,220)" stroke="#ffffff" stroke-width="0.5"/>
<rect x="420" y="60" width="50" height="50" fill="rgb(207,227,247)" stroke="#ffffff" stroke-width="0.5"/>
<rect x="420" y="110" width="50" height="50" fill="rgb(182,213,241)" stroke="#ffffff" stroke-width="0.5"/>
<rect x="420" y="160" width="50" height="50" fill="rgb(193,219,244)" stroke="#ffffff" stroke-width="0.5"/>
<rect x="420" y="210" width="50" height="50" fill="rgb(198,222,245)" stroke="#ffffff" stroke-width="0.5"/>
<rect x="420" y="260" width="50" height="50" fill="rgb(205,226,246)" stroke="#ffffff" stroke-width="0.5"/>
<rect x="420" y="310" width="50" height="50" fill="rgb(163,203,237)" stroke="#ffffff" stroke-width="0.5"/>
<rect x="420" y="360" width="50" height="50" fill="rgb(86,161,221)" stroke="#ffffff" stroke-width="0.5"/>
<rect x="420" y="410" width="50" height="50" fill="rgb(109,173,226)" stroke="#ffffff" stroke-width="0.5"/>
<rect x="470" y="60" width="50" height="50" fill="rgb(200,223,245)" stroke="#ffffff" stroke-width="0.5"/>
<rect x="470" y="110" width="50" height="50" fill="rgb(224,236,250)" stroke="#ffffff" stroke-width="0.5"/>
<rect x="470" y="160" width="50" height="50" fill="rgb(233,241,252)" stroke="#ffffff" stroke-width="0.5"/>
<rect x="470" y="210" width="50" height="50" fill="rgb(233,241,252)" stroke="#ffffff" stroke-width="0.5"/>
<rect x="470" y="260" width="50" height="50" fill="rgb(205,226,246)" stroke="#ffffff" stroke-width="0.5"/>
<rect x="470" y="310" width="50" height="50" fill="rgb(198,222,245)" stroke="#ffffff" stroke-width="0.5"/>
<rect x="470" y="360" width="50" height="50" fill="rgb(186,216,242)" stroke="#ffffff" stroke-width="0.5"/>
<rect x="470" y="410" width="50" height="50" fill="rgb(140,190,232)" stroke="#ffffff" stroke-width="0.5"/>
<rect x="520" y="60" width="50" height="50" fill="rgb(207,227,247)" stroke="#ffffff" stroke-width="0.5"/>
<rect x="520" y="110" width="50" height="50" fill="rgb(210,228,247)" stroke="#ffffff" stroke-width="0.5"/>
<rect x="520" y="160" width="50" height="50" fill="rgb(242,246,254)" stroke="#ffffff" stroke-width="0.5"/>
<rect x="520" y="210" width="50" height="50" fill="rgb(238,244,253)" stroke="#ffffff" stroke-width="0.5"/>
<rect x="520" y="260" width="50" height="50" fill="rgb(210,228,247)" stroke="#ffffff" stroke-width="0.5"/>
<rect x="520" y="310" width="50" height="50" fill="rgb(228,239,251)" stroke="#ffffff" stroke-width="0.5"/>
<rect x="520" y="360" width="50" height="50" fill="rgb(191,218,243)" stroke="#ffffff" stroke-width="0.5"/>
<rect x="520" y="410" width="50" height="50" fill="rgb(151,196,235)" stroke="#ffffff" stroke-width="0.5"/>
<rect x="570" y="60" width="50" height="50" fill="rgb(177,210,240)" stroke="#ffffff" stroke-width="0.5"/>
<rect x="570" y="110" width="50" height="50" fill="rgb(235,242,253)" stroke="#ffffff" stroke-width="0.5"/>
<rect x="570" y="160" width="50" height="50" fill="rgb(235,242,253)" stroke="#ffffff" stroke-width="0.5"/>
<rect x="570" y="210" width="50" height="50" fill="rgb(242,246,254)" stroke="#ffffff" stroke-width="0.5"/>
<rect x="570" y="260" width="50" height="50" fill="rgb(238,244,253)" stroke="#ffffff" stroke-width="0.5"/>
<rect x="570" y="310" width="50" height="50" fill="rgb(235,242,253)" stroke="#ffffff" stroke-width="0.5"/>
<rect x="570" y="360" width="50" height="50" fill="rgb(231,240,252)" stroke="#ffffff" stroke-width="0.5"/>
<rect x="570" y="410" width="50" height="50" fill="rgb(191,218,243)" stroke="#ffffff" stroke-width="0.5"/>
<rect x="20" y="60" width="600" height="400" fill="none" stroke="#1f2937" stroke-width="2"/>
<line x1="320" y1="60" x2="320" y2="460" stroke="#1f2937" stroke-width="1"/>
<rect x="520" y="160" width="100" height="200" fill="none" stroke="#1f2937"/>
<text x="20" y="482" font-family="Arial" font-size="11">Successful event endpoints + StatsBomb 360 actor snapshots; attacking direction left-to-right</text>
</svg>
