<svg xmlns="http://www.w3.org/2000/svg" width="640" height="500" viewBox="0 0 640 500" role="img">
<title>Lionel Andrés Messi Cuccittini V4 spatial heatmap</title>
<rect width="640" height="500" fill="#f7fafc"/>
<text x="20" y="28" font-family="Arial" font-size="18" font-weight="700">Lionel Andrés Messi Cuccittini</text>
<text x="20" y="49" font-family="Arial" font-size="12">Progressive Winger · 734 minutes · 46.6% final third</text>
<rect x="20" y="60" width="50" height="50" fill="rgb(245,248,255)" stroke="#ffffff" stroke-width="0.5"/>
<rect x="20" y="110" width="50" height="50" fill="rgb(245,248,255)" stroke="#ffffff" stroke-width="0.5"/>
<rect x="20" y="160" width="50" height="50" fill="rgb(241,245,254)" stroke="#ffffff" stroke-width="0.5"/>
<rect x="20" y="210" width="50" height="50" fill="rgb(245,248,255)" stroke="#ffffff" stroke-width="0.5"/>
<rect x="20" y="260" width="50" height="50" fill="rgb(245,248,255)" stroke="#ffffff" stroke-width="0.5"/>
<rect x="20" y="310" width="50" height="50" fill="rgb(245,248,255)" stroke="#ffffff" stroke-width="0.5"/>
<rect x="20" y="360" width="50" height="50" fill="rgb(245,248,255)" stroke="#ffffff" stroke-width="0.5"/>
<rect x="20" y="410" width="50" height="50" fill="rgb(243,246,254)" stroke="#ffffff" stroke-width="0.5"/>
<rect x="70" y="60" width="50" height="50" fill="rgb(245,248,255)" stroke="#ffffff" stroke-width="0.5"/>
<rect x="70" y="110" width="50" height="50" fill="rgb(245,248,255)" stroke="#ffffff" stroke-width="0.5"/>
<rect x="70" y="160" width="50" height="50" fill="rgb(245,248,255)" stroke="#ffffff" stroke-width="0.5"/>
<rect x="70" y="210" width="50" height="50" fill="rgb(245,248,255)" stroke="#ffffff" stroke-width="0.5"/>
<rect x="70" y="260" width="50" height="50" fill="rgb(245,248,255)" stroke="#ffffff" stroke-width="0.5"/>
<rect x="70" y="310" width="50" height="50" fill="rgb(245,248,255)" stroke="#ffffff" stroke-width="0.5"/>
<rect x="70" y="360" width="50" height="50" fill="rgb(245,248,255)" stroke="#ffffff" stroke-width="0.5"/>
<rect x="70" y="410" width="50" height="50" fill="rgb(241,245,254)" stroke="#ffffff" stroke-width="0.5"/>
<rect x="120" y="60" width="50" height="50" fill="rgb(245,248,255)" stroke="#ffffff" stroke-width="0.5"/>
<rect x="120" y="110" width="50" height="50" fill="rgb(245,248,255)" stroke="#ffffff" stroke-width="0.5"/>
<rect x="120" y="160" width="50" height="50" fill="rgb(237,243,253)" stroke="#ffffff" stroke-width="0.5"/>
<rect x="120" y="210" width="50" height="50" fill="rgb(237,243,253)" stroke="#ffffff" stroke-width="0.5"/>
<rect x="120" y="260" width="50" height="50" fill="rgb(245,248,255)" stroke="#ffffff" stroke-width="0.5"/>
<rect x="120" y="310" width="50" height="50" fill="rgb(241,245,254)" stroke="#ffffff" stroke-width="0.5"/>
<rect x="120" y="360" width="50" height="50" fill="rgb(239,244,253)" stroke="#ffffff" stroke-width="0.5"/>
<rect x="120" y="410" width="50" height="50" fill="rgb(230,239,251)" stroke="#ffffff" stroke-width="0.5"/>
<rect x="170" y="60" width="50" height="50" fill="rgb(235,242,253)" stroke="#ffffff" stroke-width="0.5"/>
<rect x="170" y="110" width="50" height="50" fill="rgb(239,244,253)" stroke="#ffffff" stroke-width="0.5"/>
<rect x="170" y="160" width="50" height="50" fill="rgb(237,243,253)" stroke="#ffffff" stroke-width="0.5"/>
<rect x="170" y="210" width="50" height="50" fill="rgb(222,235,250)" stroke="#ffffff" stroke-width="0.5"/>
<rect x="170" y="260" width="50" height="50" fill="rgb(215,231,248)" stroke="#ffffff" stroke-width="0.5"/>
<rect x="170" y="310" width="50" height="50" fill="rgb(187,216,242)" stroke="#ffffff" stroke-width="0.5"/>
<rect x="170" y="360" width="50" height="50" fill="rgb(213,230,248)" stroke="#ffffff" stroke-width="0.5"/>
<rect x="170" y="410" width="50" height="50" fill="rgb(235,242,253)" stroke="#ffffff" stroke-width="0.5"/>
<rect x="220" y="60" width="50" height="50" fill="rgb(245,248,255)" stroke="#ffffff" stroke-width="0.5"/>
<rect x="220" y="110" width="50" height="50" fill="rgb(224,236,250)" stroke="#ffffff" stroke-width="0.5"/>
<rect x="220" y="160" width="50" height="50" fill="rgb(231,240,252)" stroke="#ffffff" stroke-width="0.5"/>
<rect x="220" y="210" width="50" height="50" fill="rgb(217,232,249)" stroke="#ffffff" stroke-width="0.5"/>
<rect x="220" y="260" width="50" height="50" fill="rgb(185,215,242)" stroke="#ffffff" stroke-width="0.5"/>
<rect x="220" y="310" width="50" height="50" fill="rgb(200,223,245)" stroke="#ffffff" stroke-width="0.5"/>
<rect x="220" y="360" width="50" height="50" fill="rgb(202,224,245)" stroke="#ffffff" stroke-width="0.5"/>
<rect x="220" y="410" width="50" height="50" fill="rgb(231,240,252)" stroke="#ffffff" stroke-width="0.5"/>
<rect x="270" y="60" width="50" height="50" fill="rgb(241,245,254)" stroke="#ffffff" stroke-width="0.5"/>
<rect x="270" y="110" width="50" height="50" fill="rgb(237,243,253)" stroke="#ffffff" stroke-width="0.5"/>
<rect x="270" y="160" width="50" height="50" fill="rgb(200,223,245)" stroke="#ffffff" stroke-width="0.5"/>
<rect x="270" y="210" width="50" height="50" fill="rgb(179,212,241)" stroke="#ffffff" stroke-width="0.5"/>
<rect x="270" y="260" width="50" height="50" fill="rgb(150,196,234)" stroke="#ffffff" stroke-width="0.5"/>
<rect x="270" y="310" width="50" height="50" fill="rgb(187,216,242)" stroke="#ffffff" stroke-width="0.5"/>
<rect x="270" y="360" width="50" height="50" fill="rgb(98,167,223)" stroke="#ffffff" stroke-width="0.5"/>
<rect x="270" y="410" width="50" height="50" fill="rgb(168,206,238)" stroke="#ffffff" stroke-width="0.5"/>
<rect x="320" y="60" width="50" height="50" fill="rgb(239,244,253)" stroke="#ffffff" stroke-width="0.5"/>
<rect x="320" y="110" width="50" height="50" fill="rgb(213,230,248)" stroke="#ffffff" stroke-width="0.5"/>
<rect x="320" y="160" width="50" height="50" fill="rgb(200,223,245)" stroke="#ffffff" stroke-width="0.5"/>
<rect x="320" y="210" width="50" height="50" fill="rgb(161,202,237)" stroke="#ffffff" stroke-width="0.5"/>
<rect x="320" y="260" width="50" height="50" fill="rgb(161,202,237)" stroke="#ffffff" stroke-width="0.5"/>
<rect x="320" y="310" width="50" height="50" fill="rgb(100,168,223)" stroke="#ffffff" stroke-width="0.5"/>
<rect x="320" y="360" width="50" height="50" fill="rgb(139,189,232)" stroke="#ffffff" stroke-width="0.5"/>
<rect x="320" y="410" width="50" height="50" fill="rgb(178,211,240)" stroke="#ffffff" stroke-width="0.5"/>
<rect x="370" y="60" width="50" height="50" fill="rgb(237,243,253)" stroke="#ffffff" stroke-width="0.5"/>
<rect x="370" y="110" width="50" height="50" fill="rgb(228,238,251)" stroke="#ffffff" stroke-width="0.5"/>
<rect x="370" y="160" width="50" height="50" fill="rgb(211,229,247)" stroke="#ffffff" stroke-width="0.5"/>
<rect x="370" y="210" width="50" height="50" fill="rgb(183,214,241)" stroke="#ffffff" stroke-width="0.5"/>
<rect x="370" y="260" width="50" height="50" fill="rgb(124,181,229)" stroke="#ffffff" stroke-width="0.5"/>
<rect x="370" y="310" width="50" height="50" fill="rgb(83,159,220)" stroke="#ffffff" stroke-width="0.5"/>
<rect x="370" y="360" width="50" height="50" fill="rgb(127,183,229)" stroke="#ffffff" stroke-width="0.5"/>
<rect x="370" y="410" width="50" height="50" fill="rgb(124,181,229)" stroke="#ffffff" stroke-width="0.5"/>
<rect x="420" y="60" width="50" height="50" fill="rgb(231,240,252)" stroke="#ffffff" stroke-width="0.5"/>
<rect x="420" y="110" width="50" height="50" fill="rgb(217,232,249)" stroke="#ffffff" stroke-width="0.5"/>
<rect x="420" y="160" width="50" height="50" fill="rgb(185,215,242)" stroke="#ffffff" stroke-width="0.5"/>
<rect x="420" y="210" width="50" height="50" fill="rgb(161,202,237)" stroke="#ffffff" stroke-width="0.5"/>
<rect x="420" y="260" width="50" height="50" fill="rgb(122,180,228)" stroke="#ffffff" stroke-width="0.5"/>
<rect x="420" y="310" width="50" height="50" fill="rgb(35,133,210)" stroke="#ffffff" stroke-width="0.5"/>
<rect x="420" y="360" width="50" height="50" fill="rgb(111,174,226)" stroke="#ffffff" stroke-width="0.5"/>
<rect x="420" y="410" width="50" height="50" fill="rgb(155,199,235)" stroke="#ffffff" stroke-width="0.5"/>
<rect x="470" y="60" width="50" height="50" fill="rgb(230,239,251)" stroke="#ffffff" stroke-width="0.5"/>
<rect x="470" y="110" width="50" height="50" fill="rgb(207,227,247)" stroke="#ffffff" stroke-width="0.5"/>
<rect x="470" y="160" width="50" height="50" fill="rgb(196,221,244)" stroke="#ffffff" stroke-width="0.5"/>
<rect x="470" y="210" width="50" height="50" fill="rgb(114,176,227)" stroke="#ffffff" stroke-width="0.5"/>
<rect x="470" y="260" width="50" height="50" fill="rgb(114,176,227)" stroke="#ffffff" stroke-width="0.5"/>
<rect x="470" y="310" width="50" height="50" fill="rgb(127,183,229)" stroke="#ffffff" stroke-width="0.5"/>
<rect x="470" y="360" width="50" height="50" fill="rgb(126,182,229)" stroke="#ffffff" stroke-width="0.5"/>
<rect x="470" y="410" width="50" height="50" fill="rgb(205,226,246)" stroke="#ffffff" stroke-width="0.5"/>
<rect x="520" y="60" width="50" height="50" fill="rgb(220,234,249)" stroke="#ffffff" stroke-width="0.5"/>
<rect x="520" y="110" width="50" height="50" fill="rgb(224,236,250)" stroke="#ffffff" stroke-width="0.5"/>
<rect x="520" y="160" width="50" height="50" fill="rgb(183,214,241)" stroke="#ffffff" stroke-width="0.5"/>
<rect x="520" y="210" width="50" height="50" fill="rgb(176,210,240)" stroke="#ffffff" stroke-width="0.5"/>
<rect x="520" y="260" width="50" height="50" fill="rgb(168,206,238)" stroke="#ffffff" stroke-width="0.5"/>
<rect x="520" y="310" width="50" height="50" fill="rgb(174,209,239)" stroke="#ffffff" stroke-width="0.5"/>
<rect x="520" y="360" width="50" height="50" fill="rgb(217,232,249)" stroke="#ffffff" stroke-width="0.5"/>
<rect x="520" y="410" width="50" height="50" fill="rgb(194,220,244)" stroke="#ffffff" stroke-width="0.5"/>
<rect x="570" y="60" width="50" height="50" fill="rgb(213,230,248)" stroke="#ffffff" stroke-width="0.5"/>
<rect x="570" y="110" width="50" height="50" fill="rgb(241,245,254)" stroke="#ffffff" stroke-width="0.5"/>
<rect x="570" y="160" width="50" height="50" fill="rgb(220,234,249)" stroke="#ffffff" stroke-width="0.5"/>
<rect x="570" y="210" width="50" height="50" fill="rgb(224,236,250)" stroke="#ffffff" stroke-width="0.5"/>
<rect x="570" y="260" width="50" height="50" fill="rgb(239,244,253)" stroke="#ffffff" stroke-width="0.5"/>
<rect x="570" y="310" width="50" height="50" fill="rgb(230,239,251)" stroke="#ffffff" stroke-width="0.5"/>
<rect x="570" y="360" width="50" height="50" fill="rgb(241,245,254)" stroke="#ffffff" stroke-width="0.5"/>
<rect x="570" y="410" width="50" height="50" fill="rgb(237,243,253)" stroke="#ffffff" stroke-width="0.5"/>
<rect x="20" y="60" width="600" height="400" fill="none" stroke="#1f2937" stroke-width="2"/>
<line x1="320" y1="60" x2="320" y2="460" stroke="#1f2937" stroke-width="1"/>
<rect x="520" y="160" width="100" height="200" fill="none" stroke="#1f2937"/>
<text x="20" y="482" font-family="Arial" font-size="11">Successful event endpoints + StatsBomb 360 actor snapshots; attacking direction left-to-right</text>
</svg>
