<svg xmlns="http://www.w3.org/2000/svg" width="640" height="500" viewBox="0 0 640 500" role="img">
<title>Vinícius José Paixão de Oliveira Júnior V4 spatial heatmap</title>
<rect width="640" height="500" fill="#f7fafc"/>
<text x="20" y="28" font-family="Arial" font-size="18" font-weight="700">Vinícius José Paixão de Oliveira Júnior</text>
<text x="20" y="49" font-family="Arial" font-size="12">Progressive Winger · 307 minutes · 58.2% final third</text>
<rect x="20" y="60" width="50" height="50" fill="rgb(245,248,255)" stroke="#ffffff" stroke-width="0.5"/>
<rect x="20" y="110" width="50" height="50" fill="rgb(241,246,254)" stroke="#ffffff" stroke-width="0.5"/>
<rect x="20" y="160" width="50" height="50" fill="rgb(241,246,254)" stroke="#ffffff" stroke-width="0.5"/>
<rect x="20" y="210" width="50" height="50" fill="rgb(235,242,252)" stroke="#ffffff" stroke-width="0.5"/>
<rect x="20" y="260" width="50" height="50" fill="rgb(245,248,255)" stroke="#ffffff" stroke-width="0.5"/>
<rect x="20" y="310" width="50" height="50" fill="rgb(245,248,255)" stroke="#ffffff" stroke-width="0.5"/>
<rect x="20" y="360" width="50" height="50" fill="rgb(245,248,255)" stroke="#ffffff" stroke-width="0.5"/>
<rect x="20" y="410" width="50" height="50" fill="rgb(245,248,255)" stroke="#ffffff" stroke-width="0.5"/>
<rect x="70" y="60" width="50" height="50" fill="rgb(222,235,250)" stroke="#ffffff" stroke-width="0.5"/>
<rect x="70" y="110" width="50" height="50" fill="rgb(245,248,255)" stroke="#ffffff" stroke-width="0.5"/>
<rect x="70" y="160" width="50" height="50" fill="rgb(245,248,255)" stroke="#ffffff" stroke-width="0.5"/>
<rect x="70" y="210" width="50" height="50" fill="rgb(241,246,254)" stroke="#ffffff" stroke-width="0.5"/>
<rect x="70" y="260" width="50" height="50" fill="rgb(238,244,253)" stroke="#ffffff" stroke-width="0.5"/>
<rect x="70" y="310" width="50" height="50" fill="rgb(225,237,250)" stroke="#ffffff" stroke-width="0.5"/>
<rect x="70" y="360" width="50" height="50" fill="rgb(241,246,254)" stroke="#ffffff" stroke-width="0.5"/>
<rect x="70" y="410" width="50" height="50" fill="rgb(238,244,253)" stroke="#ffffff" stroke-width="0.5"/>
<rect x="120" y="60" width="50" height="50" fill="rgb(219,233,249)" stroke="#ffffff" stroke-width="0.5"/>
<rect x="120" y="110" width="50" height="50" fill="rgb(219,233,249)" stroke="#ffffff" stroke-width="0.5"/>
<rect x="120" y="160" width="50" height="50" fill="rgb(232,240,252)" stroke="#ffffff" stroke-width="0.5"/>
<rect x="120" y="210" width="50" height="50" fill="rgb(241,246,254)" stroke="#ffffff" stroke-width="0.5"/>
<rect x="120" y="260" width="50" height="50" fill="rgb(245,248,255)" stroke="#ffffff" stroke-width="0.5"/>
<rect x="120" y="310" width="50" height="50" fill="rgb(238,244,253)" stroke="#ffffff" stroke-width="0.5"/>
<rect x="120" y="360" width="50" height="50" fill="rgb(238,244,253)" stroke="#ffffff" stroke-width="0.5"/>
<rect x="120" y="410" width="50" height="50" fill="rgb(232,240,252)" stroke="#ffffff" stroke-width="0.5"/>
<rect x="170" y="60" width="50" height="50" fill="rgb(206,226,246)" stroke="#ffffff" stroke-width="0.5"/>
<rect x="170" y="110" width="50" height="50" fill="rgb(206,226,246)" stroke="#ffffff" stroke-width="0.5"/>
<rect x="170" y="160" width="50" height="50" fill="rgb(241,246,254)" stroke="#ffffff" stroke-width="0.5"/>
<rect x="170" y="210" width="50" height="50" fill="rgb(245,248,255)" stroke="#ffffff" stroke-width="0.5"/>
<rect x="170" y="260" width="50" height="50" fill="rgb(241,246,254)" stroke="#ffffff" stroke-width="0.5"/>
<rect x="170" y="310" width="50" height="50" fill="rgb(238,244,253)" stroke="#ffffff" stroke-width="0.5"/>
<rect x="170" y="360" width="50" height="50" fill="rgb(241,246,254)" stroke="#ffffff" stroke-width="0.5"/>
<rect x="170" y="410" width="50" height="50" fill="rgb(235,242,252)" stroke="#ffffff" stroke-width="0.5"/>
<rect x="220" y="60" width="50" height="50" fill="rgb(215,232,248)" stroke="#ffffff" stroke-width="0.5"/>
<rect x="220" y="110" width="50" height="50" fill="rgb(238,244,253)" stroke="#ffffff" stroke-width="0.5"/>
<rect x="220" y="160" width="50" height="50" fill="rgb(228,239,251)" stroke="#ffffff" stroke-width="0.5"/>
<rect x="220" y="210" width="50" height="50" fill="rgb(241,246,254)" stroke="#ffffff" stroke-width="0.5"/>
<rect x="220" y="260" width="50" height="50" fill="rgb(241,246,254)" stroke="#ffffff" stroke-width="0.5"/>
<rect x="220" y="310" width="50" height="50" fill="rgb(241,246,254)" stroke="#ffffff" stroke-width="0.5"/>
<rect x="220" y="360" width="50" height="50" fill="rgb(235,242,252)" stroke="#ffffff" stroke-width="0.5"/>
<rect x="220" y="410" width="50" height="50" fill="rgb(241,246,254)" stroke="#ffffff" stroke-width="0.5"/>
<rect x="270" y="60" width="50" height="50" fill="rgb(196,221,244)" stroke="#ffffff" stroke-width="0.5"/>
<rect x="270" y="110" width="50" height="50" fill="rgb(232,240,252)" stroke="#ffffff" stroke-width="0.5"/>
<rect x="270" y="160" width="50" height="50" fill="rgb(238,244,253)" stroke="#ffffff" stroke-width="0.5"/>
<rect x="270" y="210" width="50" height="50" fill="rgb(235,242,252)" stroke="#ffffff" stroke-width="0.5"/>
<rect x="270" y="260" width="50" height="50" fill="rgb(241,246,254)" stroke="#ffffff" stroke-width="0.5"/>
<rect x="270" y="310" width="50" height="50" fill="rgb(241,246,254)" stroke="#ffffff" stroke-width="0.5"/>
<rect x="270" y="360" width="50" height="50" fill="rgb(238,244,253)" stroke="#ffffff" stroke-width="0.5"/>
<rect x="270" y="410" width="50" height="50" fill="rgb(238,244,253)" stroke="#ffffff" stroke-width="0.5"/>
<rect x="320" y="60" width="50" height="50" fill="rgb(135,187,231)" stroke="#ffffff" stroke-width="0.5"/>
<rect x="320" y="110" width="50" height="50" fill="rgb(228,239,251)" stroke="#ffffff" stroke-width="0.5"/>
<rect x="320" y="160" width="50" height="50" fill="rgb(238,244,253)" stroke="#ffffff" stroke-width="0.5"/>
<rect x="320" y="210" width="50" height="50" fill="rgb(245,248,255)" stroke="#ffffff" stroke-width="0.5"/>
<rect x="320" y="260" width="50" height="50" fill="rgb(245,248,255)" stroke="#ffffff" stroke-width="0.5"/>
<rect x="320" y="310" width="50" height="50" fill="rgb(245,248,255)" stroke="#ffffff" stroke-width="0.5"/>
<rect x="320" y="360" width="50" height="50" fill="rgb(245,248,255)" stroke="#ffffff" stroke-width="0.5"/>
<rect x="320" y="410" width="50" height="50" fill="rgb(238,244,253)" stroke="#ffffff" stroke-width="0.5"/>
<rect x="370" y="60" width="50" height="50" fill="rgb(76,155,219)" stroke="#ffffff" stroke-width="0.5"/>
<rect x="370" y="110" width="50" height="50" fill="rgb(199,223,245)" stroke="#ffffff" stroke-width="0.5"/>
<rect x="370" y="160" width="50" height="50" fill="rgb(215,232,248)" stroke="#ffffff" stroke-width="0.5"/>
<rect x="370" y="210" width="50" height="50" fill="rgb(235,242,252)" stroke="#ffffff" stroke-width="0.5"/>
<rect x="370" y="260" width="50" height="50" fill="rgb(235,242,252)" stroke="#ffffff" stroke-width="0.5"/>
<rect x="370" y="310" width="50" height="50" fill="rgb(241,246,254)" stroke="#ffffff" stroke-width="0.5"/>
<rect x="370" y="360" width="50" height="50" fill="rgb(245,248,255)" stroke="#ffffff" stroke-width="0.5"/>
<rect x="370" y="410" width="50" height="50" fill="rgb(241,246,254)" stroke="#ffffff" stroke-width="0.5"/>
<rect x="420" y="60" width="50" height="50" fill="rgb(35,133,210)" stroke="#ffffff" stroke-width="0.5"/>
<rect x="420" y="110" width="50" height="50" fill="rgb(203,225,246)" stroke="#ffffff" stroke-width="0.5"/>
<rect x="420" y="160" width="50" height="50" fill="rgb(215,232,248)" stroke="#ffffff" stroke-width="0.5"/>
<rect x="420" y="210" width="50" height="50" fill="rgb(228,239,251)" stroke="#ffffff" stroke-width="0.5"/>
<rect x="420" y="260" width="50" height="50" fill="rgb(245,248,255)" stroke="#ffffff" stroke-width="0.5"/>
<rect x="420" y="310" width="50" height="50" fill="rgb(245,248,255)" stroke="#ffffff" stroke-width="0.5"/>
<rect x="420" y="360" width="50" height="50" fill="rgb(238,244,253)" stroke="#ffffff" stroke-width="0.5"/>
<rect x="420" y="410" width="50" height="50" fill="rgb(241,246,254)" stroke="#ffffff" stroke-width="0.5"/>
<rect x="470" y="60" width="50" height="50" fill="rgb(57,145,214)" stroke="#ffffff" stroke-width="0.5"/>
<rect x="470" y="110" width="50" height="50" fill="rgb(131,186,230)" stroke="#ffffff" stroke-width="0.5"/>
<rect x="470" y="160" width="50" height="50" fill="rgb(186,216,242)" stroke="#ffffff" stroke-width="0.5"/>
<rect x="470" y="210" width="50" height="50" fill="rgb(209,228,247)" stroke="#ffffff" stroke-width="0.5"/>
<rect x="470" y="260" width="50" height="50" fill="rgb(245,248,255)" stroke="#ffffff" stroke-width="0.5"/>
<rect x="470" y="310" width="50" height="50" fill="rgb(245,248,255)" stroke="#ffffff" stroke-width="0.5"/>
<rect x="470" y="360" width="50" height="50" fill="rgb(241,246,254)" stroke="#ffffff" stroke-width="0.5"/>
<rect x="470" y="410" width="50" height="50" fill="rgb(245,248,255)" stroke="#ffffff" stroke-width="0.5"/>
<rect x="520" y="60" width="50" height="50" fill="rgb(180,212,241)" stroke="#ffffff" stroke-width="0.5"/>
<rect x="520" y="110" width="50" height="50" fill="rgb(125,182,229)" stroke="#ffffff" stroke-width="0.5"/>
<rect x="520" y="160" width="50" height="50" fill="rgb(183,214,241)" stroke="#ffffff" stroke-width="0.5"/>
<rect x="520" y="210" width="50" height="50" fill="rgb(215,232,248)" stroke="#ffffff" stroke-width="0.5"/>
<rect x="520" y="260" width="50" height="50" fill="rgb(235,242,252)" stroke="#ffffff" stroke-width="0.5"/>
<rect x="520" y="310" width="50" height="50" fill="rgb(245,248,255)" stroke="#ffffff" stroke-width="0.5"/>
<rect x="520" y="360" width="50" height="50" fill="rgb(245,248,255)" stroke="#ffffff" stroke-width="0.5"/>
<rect x="520" y="410" width="50" height="50" fill="rgb(241,246,254)" stroke="#ffffff" stroke-width="0.5"/>
<rect x="570" y="60" width="50" height="50" fill="rgb(222,235,250)" stroke="#ffffff" stroke-width="0.5"/>
<rect x="570" y="110" width="50" height="50" fill="rgb(196,221,244)" stroke="#ffffff" stroke-width="0.5"/>
<rect x="570" y="160" width="50" height="50" fill="rgb(154,198,235)" stroke="#ffffff" stroke-width="0.5"/>
<rect x="570" y="210" width="50" height="50" fill="rgb(219,233,249)" stroke="#ffffff" stroke-width="0.5"/>
<rect x="570" y="260" width="50" height="50" fill="rgb(235,242,252)" stroke="#ffffff" stroke-width="0.5"/>
<rect x="570" y="310" width="50" height="50" fill="rgb(245,248,255)" stroke="#ffffff" stroke-width="0.5"/>
<rect x="570" y="360" width="50" height="50" fill="rgb(245,248,255)" stroke="#ffffff" stroke-width="0.5"/>
<rect x="570" y="410" width="50" height="50" fill="rgb(245,248,255)" stroke="#ffffff" stroke-width="0.5"/>
<rect x="20" y="60" width="600" height="400" fill="none" stroke="#1f2937" stroke-width="2"/>
<line x1="320" y1="60" x2="320" y2="460" stroke="#1f2937" stroke-width="1"/>
<rect x="520" y="160" width="100" height="200" fill="none" stroke="#1f2937"/>
<text x="20" y="482" font-family="Arial" font-size="11">Successful event endpoints + StatsBomb 360 actor snapshots; attacking direction left-to-right</text>
</svg>
