<svg xmlns="http://www.w3.org/2000/svg" width="640" height="500" viewBox="0 0 640 500" role="img">
<title>Marcos Aoás Corrêa V4 spatial heatmap</title>
<rect width="640" height="500" fill="#f7fafc"/>
<text x="20" y="28" font-family="Arial" font-size="18" font-weight="700">Marcos Aoás Corrêa</text>
<text x="20" y="49" font-family="Arial" font-size="12">Holding Anchor · 455 minutes · 8.1% final third</text>
<rect x="20" y="60" width="50" height="50" fill="rgb(245,248,255)" stroke="#ffffff" stroke-width="0.5"/>
<rect x="20" y="110" width="50" height="50" fill="rgb(229,239,251)" stroke="#ffffff" stroke-width="0.5"/>
<rect x="20" y="160" width="50" height="50" fill="rgb(241,246,254)" stroke="#ffffff" stroke-width="0.5"/>
<rect x="20" y="210" width="50" height="50" fill="rgb(235,242,252)" stroke="#ffffff" stroke-width="0.5"/>
<rect x="20" y="260" width="50" height="50" fill="rgb(207,227,246)" stroke="#ffffff" stroke-width="0.5"/>
<rect x="20" y="310" width="50" height="50" fill="rgb(172,208,239)" stroke="#ffffff" stroke-width="0.5"/>
<rect x="20" y="360" width="50" height="50" fill="rgb(241,246,254)" stroke="#ffffff" stroke-width="0.5"/>
<rect x="20" y="410" width="50" height="50" fill="rgb(241,246,254)" stroke="#ffffff" stroke-width="0.5"/>
<rect x="70" y="60" width="50" height="50" fill="rgb(219,234,249)" stroke="#ffffff" stroke-width="0.5"/>
<rect x="70" y="110" width="50" height="50" fill="rgb(232,241,252)" stroke="#ffffff" stroke-width="0.5"/>
<rect x="70" y="160" width="50" height="50" fill="rgb(213,230,248)" stroke="#ffffff" stroke-width="0.5"/>
<rect x="70" y="210" width="50" height="50" fill="rgb(182,213,241)" stroke="#ffffff" stroke-width="0.5"/>
<rect x="70" y="260" width="50" height="50" fill="rgb(194,220,244)" stroke="#ffffff" stroke-width="0.5"/>
<rect x="70" y="310" width="50" height="50" fill="rgb(125,182,229)" stroke="#ffffff" stroke-width="0.5"/>
<rect x="70" y="360" width="50" height="50" fill="rgb(182,213,241)" stroke="#ffffff" stroke-width="0.5"/>
<rect x="70" y="410" width="50" height="50" fill="rgb(229,239,251)" stroke="#ffffff" stroke-width="0.5"/>
<rect x="120" y="60" width="50" height="50" fill="rgb(238,244,253)" stroke="#ffffff" stroke-width="0.5"/>
<rect x="120" y="110" width="50" height="50" fill="rgb(166,205,238)" stroke="#ffffff" stroke-width="0.5"/>
<rect x="120" y="160" width="50" height="50" fill="rgb(163,203,237)" stroke="#ffffff" stroke-width="0.5"/>
<rect x="120" y="210" width="50" height="50" fill="rgb(210,229,247)" stroke="#ffffff" stroke-width="0.5"/>
<rect x="120" y="260" width="50" height="50" fill="rgb(166,205,238)" stroke="#ffffff" stroke-width="0.5"/>
<rect x="120" y="310" width="50" height="50" fill="rgb(125,182,229)" stroke="#ffffff" stroke-width="0.5"/>
<rect x="120" y="360" width="50" height="50" fill="rgb(188,217,242)" stroke="#ffffff" stroke-width="0.5"/>
<rect x="120" y="410" width="50" height="50" fill="rgb(197,222,244)" stroke="#ffffff" stroke-width="0.5"/>
<rect x="170" y="60" width="50" height="50" fill="rgb(210,229,247)" stroke="#ffffff" stroke-width="0.5"/>
<rect x="170" y="110" width="50" height="50" fill="rgb(157,199,236)" stroke="#ffffff" stroke-width="0.5"/>
<rect x="170" y="160" width="50" height="50" fill="rgb(154,198,235)" stroke="#ffffff" stroke-width="0.5"/>
<rect x="170" y="210" width="50" height="50" fill="rgb(166,205,238)" stroke="#ffffff" stroke-width="0.5"/>
<rect x="170" y="260" width="50" height="50" fill="rgb(78,157,219)" stroke="#ffffff" stroke-width="0.5"/>
<rect x="170" y="310" width="50" height="50" fill="rgb(72,153,218)" stroke="#ffffff" stroke-width="0.5"/>
<rect x="170" y="360" width="50" height="50" fill="rgb(122,181,228)" stroke="#ffffff" stroke-width="0.5"/>
<rect x="170" y="410" width="50" height="50" fill="rgb(207,227,246)" stroke="#ffffff" stroke-width="0.5"/>
<rect x="220" y="60" width="50" height="50" fill="rgb(213,230,248)" stroke="#ffffff" stroke-width="0.5"/>
<rect x="220" y="110" width="50" height="50" fill="rgb(119,179,228)" stroke="#ffffff" stroke-width="0.5"/>
<rect x="220" y="160" width="50" height="50" fill="rgb(41,136,211)" stroke="#ffffff" stroke-width="0.5"/>
<rect x="220" y="210" width="50" height="50" fill="rgb(82,158,220)" stroke="#ffffff" stroke-width="0.5"/>
<rect x="220" y="260" width="50" height="50" fill="rgb(38,134,210)" stroke="#ffffff" stroke-width="0.5"/>
<rect x="220" y="310" width="50" height="50" fill="rgb(35,133,210)" stroke="#ffffff" stroke-width="0.5"/>
<rect x="220" y="360" width="50" height="50" fill="rgb(147,194,234)" stroke="#ffffff" stroke-width="0.5"/>
<rect x="220" y="410" width="50" height="50" fill="rgb(223,235,250)" stroke="#ffffff" stroke-width="0.5"/>
<rect x="270" y="60" width="50" height="50" fill="rgb(210,229,247)" stroke="#ffffff" stroke-width="0.5"/>
<rect x="270" y="110" width="50" height="50" fill="rgb(176,210,240)" stroke="#ffffff" stroke-width="0.5"/>
<rect x="270" y="160" width="50" height="50" fill="rgb(85,160,220)" stroke="#ffffff" stroke-width="0.5"/>
<rect x="270" y="210" width="50" height="50" fill="rgb(53,143,214)" stroke="#ffffff" stroke-width="0.5"/>
<rect x="270" y="260" width="50" height="50" fill="rgb(60,146,215)" stroke="#ffffff" stroke-width="0.5"/>
<rect x="270" y="310" width="50" height="50" fill="rgb(44,138,212)" stroke="#ffffff" stroke-width="0.5"/>
<rect x="270" y="360" width="50" height="50" fill="rgb(169,206,238)" stroke="#ffffff" stroke-width="0.5"/>
<rect x="270" y="410" width="50" height="50" fill="rgb(223,235,250)" stroke="#ffffff" stroke-width="0.5"/>
<rect x="320" y="60" width="50" height="50" fill="rgb(160,201,236)" stroke="#ffffff" stroke-width="0.5"/>
<rect x="320" y="110" width="50" height="50" fill="rgb(154,198,235)" stroke="#ffffff" stroke-width="0.5"/>
<rect x="320" y="160" width="50" height="50" fill="rgb(88,162,221)" stroke="#ffffff" stroke-width="0.5"/>
<rect x="320" y="210" width="50" height="50" fill="rgb(116,177,227)" stroke="#ffffff" stroke-width="0.5"/>
<rect x="320" y="260" width="50" height="50" fill="rgb(107,172,225)" stroke="#ffffff" stroke-width="0.5"/>
<rect x="320" y="310" width="50" height="50" fill="rgb(144,193,233)" stroke="#ffffff" stroke-width="0.5"/>
<rect x="320" y="360" width="50" height="50" fill="rgb(154,198,235)" stroke="#ffffff" stroke-width="0.5"/>
<rect x="320" y="410" width="50" height="50" fill="rgb(229,239,251)" stroke="#ffffff" stroke-width="0.5"/>
<rect x="370" y="60" width="50" height="50" fill="rgb(219,234,249)" stroke="#ffffff" stroke-width="0.5"/>
<rect x="370" y="110" width="50" height="50" fill="rgb(107,172,225)" stroke="#ffffff" stroke-width="0.5"/>
<rect x="370" y="160" width="50" height="50" fill="rgb(107,172,225)" stroke="#ffffff" stroke-width="0.5"/>
<rect x="370" y="210" width="50" height="50" fill="rgb(188,217,242)" stroke="#ffffff" stroke-width="0.5"/>
<rect x="370" y="260" width="50" height="50" fill="rgb(191,218,243)" stroke="#ffffff" stroke-width="0.5"/>
<rect x="370" y="310" width="50" height="50" fill="rgb(223,235,250)" stroke="#ffffff" stroke-width="0.5"/>
<rect x="370" y="360" width="50" height="50" fill="rgb(201,223,245)" stroke="#ffffff" stroke-width="0.5"/>
<rect x="370" y="410" width="50" height="50" fill="rgb(213,230,248)" stroke="#ffffff" stroke-width="0.5"/>
<rect x="420" y="60" width="50" height="50" fill="rgb(219,234,249)" stroke="#ffffff" stroke-width="0.5"/>
<rect x="420" y="110" width="50" height="50" fill="rgb(197,222,244)" stroke="#ffffff" stroke-width="0.5"/>
<rect x="420" y="160" width="50" height="50" fill="rgb(147,194,234)" stroke="#ffffff" stroke-width="0.5"/>
<rect x="420" y="210" width="50" height="50" fill="rgb(207,227,246)" stroke="#ffffff" stroke-width="0.5"/>
<rect x="420" y="260" width="50" height="50" fill="rgb(226,237,250)" stroke="#ffffff" stroke-width="0.5"/>
<rect x="420" y="310" width="50" height="50" fill="rgb(235,242,252)" stroke="#ffffff" stroke-width="0.5"/>
<rect x="420" y="360" width="50" height="50" fill="rgb(241,246,254)" stroke="#ffffff" stroke-width="0.5"/>
<rect x="420" y="410" width="50" height="50" fill="rgb(204,225,246)" stroke="#ffffff" stroke-width="0.5"/>
<rect x="470" y="60" width="50" height="50" fill="rgb(226,237,250)" stroke="#ffffff" stroke-width="0.5"/>
<rect x="470" y="110" width="50" height="50" fill="rgb(238,244,253)" stroke="#ffffff" stroke-width="0.5"/>
<rect x="470" y="160" width="50" height="50" fill="rgb(232,241,252)" stroke="#ffffff" stroke-width="0.5"/>
<rect x="470" y="210" width="50" height="50" fill="rgb(241,246,254)" stroke="#ffffff" stroke-width="0.5"/>
<rect x="470" y="260" width="50" height="50" fill="rgb(245,248,255)" stroke="#ffffff" stroke-width="0.5"/>
<rect x="470" y="310" width="50" height="50" fill="rgb(245,248,255)" stroke="#ffffff" stroke-width="0.5"/>
<rect x="470" y="360" width="50" height="50" fill="rgb(241,246,254)" stroke="#ffffff" stroke-width="0.5"/>
<rect x="470" y="410" width="50" height="50" fill="rgb(238,244,253)" stroke="#ffffff" stroke-width="0.5"/>
<rect x="520" y="60" width="50" height="50" fill="rgb(229,239,251)" stroke="#ffffff" stroke-width="0.5"/>
<rect x="520" y="110" width="50" height="50" fill="rgb(213,230,248)" stroke="#ffffff" stroke-width="0.5"/>
<rect x="520" y="160" width="50" height="50" fill="rgb(241,246,254)" stroke="#ffffff" stroke-width="0.5"/>
<rect x="520" y="210" width="50" height="50" fill="rgb(245,248,255)" stroke="#ffffff" stroke-width="0.5"/>
<rect x="520" y="260" width="50" height="50" fill="rgb(223,235,250)" stroke="#ffffff" stroke-width="0.5"/>
<rect x="520" y="310" width="50" height="50" fill="rgb(245,248,255)" stroke="#ffffff" stroke-width="0.5"/>
<rect x="520" y="360" width="50" height="50" fill="rgb(245,248,255)" stroke="#ffffff" stroke-width="0.5"/>
<rect x="520" y="410" width="50" height="50" fill="rgb(241,246,254)" stroke="#ffffff" stroke-width="0.5"/>
<rect x="570" y="60" width="50" height="50" fill="rgb(245,248,255)" stroke="#ffffff" stroke-width="0.5"/>
<rect x="570" y="110" width="50" height="50" fill="rgb(235,242,252)" stroke="#ffffff" stroke-width="0.5"/>
<rect x="570" y="160" width="50" height="50" fill="rgb(235,242,252)" stroke="#ffffff" stroke-width="0.5"/>
<rect x="570" y="210" width="50" height="50" fill="rgb(213,230,248)" stroke="#ffffff" stroke-width="0.5"/>
<rect x="570" y="260" width="50" height="50" fill="rgb(245,248,255)" stroke="#ffffff" stroke-width="0.5"/>
<rect x="570" y="310" width="50" height="50" fill="rgb(245,248,255)" stroke="#ffffff" stroke-width="0.5"/>
<rect x="570" y="360" width="50" height="50" fill="rgb(245,248,255)" stroke="#ffffff" stroke-width="0.5"/>
<rect x="570" y="410" width="50" height="50" fill="rgb(245,248,255)" stroke="#ffffff" stroke-width="0.5"/>
<rect x="20" y="60" width="600" height="400" fill="none" stroke="#1f2937" stroke-width="2"/>
<line x1="320" y1="60" x2="320" y2="460" stroke="#1f2937" stroke-width="1"/>
<rect x="520" y="160" width="100" height="200" fill="none" stroke="#1f2937"/>
<text x="20" y="482" font-family="Arial" font-size="11">Successful event endpoints + StatsBomb 360 actor snapshots; attacking direction left-to-right</text>
</svg>
